<?xml version="1.0" standalone="no"?>
<!DOCTYPE svg PUBLIC "-//W3C//DTD SVG 20010904//EN"
 "http://www.w3.org/TR/2001/REC-SVG-20010904/DTD/svg10.dtd">
<svg version="1.0" xmlns="http://www.w3.org/2000/svg"
 width="512.000000pt" height="512.000000pt" viewBox="0 0 512.000000 512.000000"
 preserveAspectRatio="xMidYMid meet">
<metadata>
Created by potrace 1.11, written by Peter Selinger 2001-2013
</metadata>
<g transform="translate(0.000000,512.000000) scale(0.100000,-0.100000)"
fill="#000000" stroke="none">
<path d="M2419 4776 c-2 -2 -33 -7 -68 -10 -36 -4 -85 -11 -110 -17 -25 -6
-57 -13 -71 -15 -39 -7 -170 -49 -231 -74 -205 -84 -422 -231 -573 -390 -253
-266 -424 -627 -463 -977 -10 -83 -10 -317 -1 -393 10 -79 44 -222 76 -315 37
-109 143 -317 227 -447 65 -98 75 -108 130 -136 63 -31 140 -58 190 -66 17 -3
53 -10 80 -15 50 -10 331 -8 393 3 17 3 44 8 60 10 118 18 264 59 492 137 113
39 282 96 375 128 321 110 488 141 730 136 88 -2 171 -6 185 -9 14 -3 54 -10
90 -16 36 -5 91 -16 122 -24 l57 -13 10 31 c6 17 12 42 15 56 2 14 11 54 19
90 19 81 45 227 52 300 4 30 8 69 11 85 13 76 12 405 -1 505 -39 292 -166 590
-348 815 -49 61 -208 219 -261 260 -84 65 -214 147 -310 194 -94 46 -278 113
-343 126 -164 31 -220 38 -364 41 -91 2 -168 2 -170 0z m296 -770 c319 -66
564 -304 628 -611 19 -90 15 -260 -7 -345 -58 -221 -226 -421 -436 -517 -153
-70 -363 -89 -526 -48 -233 59 -420 208 -527 420 -103 206 -98 490 15 695 42
77 47 84 95 141 115 133 270 224 454 263 63 14 240 15 304 2z"/>
<path d="M3577 2015 c-1 -2 -42 -5 -92 -9 -49 -3 -103 -9 -120 -12 -51 -9
-197 -43 -255 -60 -107 -32 -384 -125 -425 -144 -40 -19 -352 -119 -430 -139
-193 -49 -285 -62 -453 -66 -72 -2 -133 -6 -135 -9 -2 -5 109 -121 206 -213
l65 -62 159 39 c158 39 290 81 648 205 282 98 502 160 655 185 41 7 84 15 95
18 11 2 118 5 239 6 l219 1 34 103 c19 57 33 105 31 107 -8 8 -168 34 -248 40
-80 7 -189 12 -193 10z"/>
<path d="M3657 1384 c-1 -1 -40 -4 -87 -8 -192 -14 -393 -61 -710 -167 -152
-50 -325 -110 -345 -119 -11 -5 -69 -24 -128 -43 -121 -38 -120 -34 -39 -95
21 -15 39 -29 42 -32 9 -9 243 -185 305 -229 132 -94 422 -283 493 -323 72
-40 76 -40 89 -22 18 25 143 232 143 238 0 2 16 33 36 67 82 146 360 724 351
730 -3 2 -148 5 -150 3z"/>
</g>
</svg>
